# xmcd
#
# Track frame offsets:
#	150
#	15019
#	30123
#	52449
#	76395
#	104838
#	134753
#	149901
#	168063
#	198217
#
# Disc length: 3649 seconds
#
# Revision: 0
# Processed by: cddbd v1.5.2PL0 Copyright (c) Steve Scherf et al.
# Submitted via: EasyCDDAExtractor 12.0.1.1
#
DISCID=870e3f0a
DTITLE=Masters of Bluegrass - MOB 2004.07.18 [CD1]
DYEAR=2004
DGENRE=Bluegrass
TTITLE0=Long Journey Home
TTITLE1=Mighty Dark To Travel
TTITLE2=On and On
TTITLE3=Darling, Think Of What You've Done
TTITLE4=Kissimmee Kid
TTITLE5=When The Golden Leaves Begin To Fall
TTITLE6=Unknown
TTITLE7=Molly and Tenbrooks
TTITLE8=Pig in a Pen
TTITLE9=No Woman, No Cry
EXTD=
EXTT0=
EXTT1=
EXTT2=
EXTT3=
EXTT4=
EXTT5=
EXTT6=
EXTT7=
EXTT8=
EXTT9=
PLAYORDER=
